<?xml version="1.0" encoding="UTF-8"?>
<svg xmlns="http://www.w3.org/2000/svg" xmlns:xlink="http://www.w3.org/1999/xlink" viewBox="0 0 310.49 95.08">
  <defs>
    <style>
      .cls-1 {
        fill: #dbdbdc;
      }

      .cls-2 {
        fill: url(#linear-gradient-2);
      }

      .cls-2, .cls-3, .cls-4, .cls-5, .cls-6 {
        mix-blend-mode: multiply;
      }

      .cls-2, .cls-5 {
        opacity: .4;
      }

      .cls-7 {
        fill: url(#radial-gradient-4);
      }

      .cls-8 {
        isolation: isolate;
      }

      .cls-3 {
        fill: url(#radial-gradient-5);
      }

      .cls-3, .cls-6 {
        opacity: .5;
      }

      .cls-9 {
        fill: #f47927;
      }

      .cls-10 {
        fill: url(#radial-gradient);
      }

      .cls-4 {
        fill: url(#radial-gradient-3);
      }

      .cls-4, .cls-11 {
        opacity: .35;
      }

      .cls-5 {
        fill: url(#linear-gradient-4);
      }

      .cls-12 {
        fill: url(#linear-gradient-5);
      }

      .cls-6 {
        fill: url(#radial-gradient-2);
      }

      .cls-11 {
        fill: url(#linear-gradient-3);
      }

      .cls-13 {
        fill: #776a6a;
      }

      .cls-14 {
        fill: url(#linear-gradient);
      }

      .cls-15 {
        fill: #d9d9d9;
      }
    </style>
    <radialGradient id="radial-gradient" cx="207.13" cy="-112.91" fx="207.13" fy="-112.91" r="6.51" gradientTransform="translate(-479.7 355.53) scale(2.88)" gradientUnits="userSpaceOnUse">
      <stop offset="0" stop-color="#54b9e9"/>
      <stop offset=".21" stop-color="#4fb4e5"/>
      <stop offset=".43" stop-color="#42a9da"/>
      <stop offset=".66" stop-color="#2c95c8"/>
      <stop offset=".9" stop-color="#0e79af"/>
      <stop offset="1" stop-color="#006ca3"/>
    </radialGradient>
    <radialGradient id="radial-gradient-2" cx="125.16" cy="23.7" fx="125.16" fy="23.7" r="31.82" gradientUnits="userSpaceOnUse">
      <stop offset="0" stop-color="#231f20" stop-opacity="0"/>
      <stop offset=".33" stop-color="#231f20" stop-opacity=".13"/>
      <stop offset=".69" stop-color="#231f20" stop-opacity=".5"/>
      <stop offset="1" stop-color="#231f20"/>
    </radialGradient>
    <linearGradient id="linear-gradient" x1="117.6" y1="40.32" x2="117.6" y2="11.26" gradientUnits="userSpaceOnUse">
      <stop offset="0" stop-color="#fff" stop-opacity="0"/>
      <stop offset=".11" stop-color="#fff" stop-opacity=".02"/>
      <stop offset=".24" stop-color="#fff" stop-opacity=".07"/>
      <stop offset=".37" stop-color="#fff" stop-opacity=".15"/>
      <stop offset=".5" stop-color="#fff" stop-opacity=".27"/>
      <stop offset=".63" stop-color="#fff" stop-opacity=".43"/>
      <stop offset=".77" stop-color="#fff" stop-opacity=".61"/>
      <stop offset=".91" stop-color="#fff" stop-opacity=".83"/>
      <stop offset="1" stop-color="#fff"/>
    </linearGradient>
    <radialGradient id="radial-gradient-3" cx="34.69" cy="30.83" fx="34.69" fy="30.83" r="18.42" gradientTransform="translate(-1.4 12.3) rotate(-.2)" xlink:href="#radial-gradient-2"/>
    <linearGradient id="linear-gradient-2" x1="36.45" y1="35.48" x2="37.95" y2="43.01" gradientTransform="translate(-1.4 12.3) rotate(-.2)" gradientUnits="userSpaceOnUse">
      <stop offset="0" stop-color="#231f20"/>
      <stop offset="1" stop-color="#231f20" stop-opacity=".75"/>
    </linearGradient>
    <linearGradient id="linear-gradient-3" x1="30.32" y1="40.82" x2="30.32" y2="23.79" gradientTransform="translate(-1.4 12.3) rotate(-.2)" xlink:href="#linear-gradient"/>
    <linearGradient id="linear-gradient-4" x1="109.47" y1="38.98" x2="105.41" y2="44.08" gradientTransform="matrix(1,0,0,1,0,0)" xlink:href="#linear-gradient-2"/>
    <radialGradient id="radial-gradient-4" cx="191.8" cy="-99.52" fx="191.8" fy="-99.52" r="5.33" xlink:href="#radial-gradient"/>
    <radialGradient id="radial-gradient-5" cx="79.58" cy="63.44" fx="79.58" fy="63.44" r="26.04" xlink:href="#radial-gradient-2"/>
    <linearGradient id="linear-gradient-5" x1="73.41" y1="75.87" x2="73.41" y2="53.4" xlink:href="#linear-gradient"/>
  </defs>
  <g class="cls-8">
    <g id="Layer_1" data-name="Layer 1">
      <g>
        <g>
          <g>
            <g>
              <path class="cls-13" d="m218.43,13.4c-1.46,0-2.94.03-4.44.1-1.5.06-2.64.13-3.43.19-.79.06-1.57.15-2.36.26-.78.15-1.18.62-1.18,1.43v38.58c0,.83.4,1.29,1.18,1.4.73.09,1.33.16,1.78.21.46.05,1.18.1,2.18.15,1,.06,2.11.1,3.33.13,1.23.04,2.2.06,2.93.06,5.38,0,9.55-1.45,12.53-4.34,2.98-2.89,4.47-7.27,4.47-13.13v-7.57c0-5.88-1.49-10.27-4.46-13.15-2.98-2.88-7.16-4.32-12.55-4.32Zm11.89,25.03c0,4.75-1.05,8.12-3.15,10.11-2.1,1.99-5.01,2.99-8.74,2.99-2.96,0-5.05-.04-6.25-.14V17.95c1.86-.11,3.95-.17,6.25-.17s4.48.4,6.25,1.21c1.77.81,3.15,2.18,4.15,4.13.99,1.95,1.49,4.53,1.49,7.74v7.57Z"/>
              <path class="cls-13" d="m293.54,54.22l-10.39-36.61c-.31-1.06-.77-1.9-1.37-2.53-.6-.63-1.27-1.07-2-1.32-.73-.25-1.5-.37-2.3-.37-1.24,0-2.4.32-3.45.95-1.06.63-1.82,1.74-2.28,3.33l-10.39,36.55c-.04.07-.05.2-.05.38,0,.25.1.47.28.64.19.17.42.26.67.26h3.32c.18,0,.38-.08.6-.25.22-.16.36-.36.41-.6l3.6-12.91,1.06-4.44,5.1-18.45c.18-.68.56-1.02,1.12-1.02.53,0,.89.34,1.06,1.02l5.1,18.45,1.07,4.44,3.65,12.91c.13.57.45.85.96.85h3.32c.64,0,.96-.3.96-.9,0-.18-.02-.31-.05-.38Z"/>
            </g>
            <path class="cls-13" d="m169.83,40.71c-.55-1.86-1.4-4.11-2.5-6.68-.72-1.67-1.37-3.23-1.95-4.63-.57-1.4-1-2.58-1.27-3.51-.27-.91-.4-1.65-.4-2.24,0-2.1,1.47-4.45,4.35-6.98,0,0,.71-.8.7-1.68-.01-.88-1.05-1.9-2.21-1.9-.12,0-.23,0-.36.03l-.17.03c-.41.09-.97.35-1.65.78-.87.54-1.77,1.31-2.7,2.29-2.02,2.17-3.01,4.62-3.01,7.48,0,.91.12,1.92.36,3.03.24,1.1.55,2.18.93,3.19.37,1.02.84,2.16,1.36,3.37,1.41,3.35,2.45,6.02,3.11,7.94.64,1.88.96,3.49.96,4.78,0,.99-.21,1.85-.62,2.56-.43.74-1.1,1.45-2,2.09-.68.49-2.26,1.48-2.67,1.68-.41.2-.95,1.21-.95,1.21-.07.2-.1.42-.1.63,0,1.22,1.06,2.21,2.38,2.21.16,0,.31-.02.47-.05l.06.02.36-.14s.05-.02.07-.03l.06-.03c5.47-2.15,8.24-5.63,8.24-10.36,0-1.5-.28-3.22-.84-5.11Z"/>
          </g>
          <g>
            <path class="cls-13" d="m159.19,84.08v-16.5h1.62v16.5h-1.62Z"/>
            <path class="cls-13" d="m166.76,84.08v-8.87c0-.71-.03-1.59-.09-2.63h1.52l.08,1.96c1.21-1.39,2.56-2.09,4.08-2.09.98,0,1.79.17,2.42.5.63.33,1.09.83,1.39,1.5.29.67.44,1.52.44,2.56v7.08h-1.55v-6.91c0-1.22-.22-2.1-.66-2.64-.45-.55-1.18-.82-2.24-.82-.71,0-1.36.15-1.95.45-.6.3-1.06.72-1.4,1.27-.34.55-.51,1.18-.51,1.91v6.75h-1.53Z"/>
            <path class="cls-13" d="m182.96,84.08v-10.41h-2.43v-1.09h2.43v-2.75c0-1.68.94-2.52,2.82-2.52.31,0,.85.05,1.6.14v1.17c-.52-.03-.87-.04-1.07-.04-.51,0-.88.04-1.13.14-.25.09-.42.25-.52.47-.09.22-.14.55-.14.99v2.41h2.87v1.09h-2.87v10.41h-1.55Z"/>
            <path class="cls-13" d="m190.92,78.32c0-1.19.25-2.25.74-3.17.5-.92,1.18-1.63,2.05-2.12.87-.5,1.86-.74,2.96-.74.82,0,1.59.14,2.28.42.7.28,1.32.68,1.84,1.22.53.53.93,1.17,1.21,1.91.28.74.42,1.57.42,2.49,0,1.19-.25,2.24-.74,3.16-.49.92-1.18,1.62-2.04,2.13-.87.5-1.86.75-2.98.75s-2.1-.25-2.97-.75c-.87-.49-1.55-1.21-2.04-2.13-.5-.92-.74-1.98-.74-3.16Zm1.63,0c0,.75.09,1.42.28,2,.19.58.48,1.08.85,1.5.37.42.81.74,1.31.95.5.21,1.06.32,1.68.32s1.18-.11,1.69-.32c.51-.21.94-.53,1.31-.95.36-.42.65-.92.84-1.5.2-.58.3-1.25.3-2s-.1-1.42-.28-2.01c-.19-.59-.46-1.09-.83-1.51-.37-.41-.81-.73-1.32-.94-.51-.21-1.08-.31-1.7-.31-.84,0-1.57.19-2.19.57-.62.38-1.1.93-1.43,1.65-.34.72-.51,1.57-.51,2.54Z"/>
            <path class="cls-13" d="m207.35,84.08v-8.73c0-.3-.04-1.22-.12-2.77h1.55l.1,1.77c.69-1.22,1.86-1.84,3.5-1.84.17,0,.44.02.8.05v1.36c-.25-.02-.52-.02-.82-.02-.7,0-1.31.14-1.84.41-.52.28-.93.68-1.21,1.2-.27.53-.41,1.15-.41,1.86v6.71h-1.55Z"/>
            <path class="cls-13" d="m217.01,84.08v-8.87c0-.71-.04-1.59-.1-2.63h1.53l.07,1.96c.59-.69,1.22-1.22,1.88-1.57.67-.35,1.39-.52,2.17-.52,2.01,0,3.32.78,3.92,2.35.68-.8,1.36-1.4,2.04-1.78.68-.38,1.43-.57,2.25-.57.95,0,1.74.17,2.37.5.63.33,1.09.84,1.39,1.51.3.68.44,1.52.44,2.54v7.08h-1.53v-6.91c0-1.19-.22-2.06-.68-2.62-.45-.56-1.19-.84-2.21-.84-1.1,0-2.01.33-2.73,1-.73.66-1.08,1.54-1.08,2.63v6.75h-1.53v-6.91c0-1.2-.22-2.08-.67-2.63-.45-.56-1.17-.83-2.18-.83-1.11,0-2.02.33-2.75,1-.73.66-1.09,1.54-1.09,2.63v6.75h-1.53Z"/>
            <path class="cls-13" d="m247.94,84.08l-.12-1.94c-.44.7-1.02,1.25-1.75,1.63-.72.38-1.55.57-2.48.57-1.26,0-2.25-.31-3-.94-.74-.62-1.11-1.47-1.11-2.53,0-.76.23-1.42.69-1.99.47-.57,1.16-1.01,2.07-1.32.92-.32,2-.47,3.24-.47h2.18v-1.34c0-.75-.26-1.33-.77-1.73-.52-.4-1.27-.6-2.26-.6-.92,0-1.65.18-2.18.54-.53.36-.83.87-.88,1.51h-1.57c.14-1.02.6-1.8,1.39-2.34.78-.54,1.86-.81,3.22-.81,1.5,0,2.64.29,3.41.87.56.41.9.88,1.04,1.4.14.52.21,1.29.21,2.29v5.01c0,.62.07,1.35.2,2.18h-1.53Zm-.27-5.9h-1.84c-1.57,0-2.77.24-3.61.71-.83.47-1.25,1.13-1.25,1.98,0,.68.26,1.23.78,1.65.52.42,1.21.63,2.08.63.72,0,1.37-.15,1.96-.45.59-.29,1.05-.7,1.37-1.2.33-.5.49-1.06.49-1.68v-1.64Z"/>
            <path class="cls-13" d="m257,81.08c0,.72.13,1.24.37,1.56.25.32.7.48,1.35.48.42,0,.87-.07,1.36-.2v1.25c-.78.14-1.34.21-1.71.21-1.94,0-2.92-.89-2.92-2.68v-8.03h-2.46v-1.09h2.46v-2.41l1.55-.62v3.02h2.82v1.09h-2.82v7.41Z"/>
            <path class="cls-13" d="m264.01,69.43v-1.88h1.87v1.88h-1.87Zm.14,14.65v-11.5h1.55v11.5h-1.55Z"/>
            <path class="cls-13" d="m271.26,84.08v-16.5h1.53v9.77l5.87-4.77h2.01l-6.21,4.97,6.73,6.53h-2.15l-6.25-6.17v6.17h-1.53Z"/>
            <path class="cls-13" d="m292.45,84.08l-.12-1.94c-.44.7-1.03,1.25-1.75,1.63-.72.38-1.55.57-2.48.57-1.25,0-2.25-.31-2.99-.94-.74-.62-1.11-1.47-1.11-2.53,0-.76.23-1.42.7-1.99.46-.57,1.15-1.01,2.07-1.32.91-.32,2-.47,3.24-.47h2.17v-1.34c0-.75-.26-1.33-.77-1.73-.52-.4-1.27-.6-2.25-.6-.92,0-1.65.18-2.18.54-.53.36-.83.87-.87,1.51h-1.58c.14-1.02.6-1.8,1.38-2.34.79-.54,1.86-.81,3.22-.81,1.5,0,2.64.29,3.41.87.55.41.9.88,1.04,1.4.14.52.21,1.29.21,2.29v5.01c0,.62.06,1.35.19,2.18h-1.53Zm-.27-5.9h-1.83c-1.57,0-2.77.24-3.6.71-.84.47-1.25,1.13-1.25,1.98,0,.68.26,1.23.77,1.65.52.42,1.21.63,2.09.63.72,0,1.37-.15,1.96-.45.59-.29,1.05-.7,1.37-1.2.33-.5.49-1.06.49-1.68v-1.64Z"/>
          </g>
        </g>
        <g>
          <path class="cls-15" d="m97.11,29.94c0,11.32,9.18,20.5,20.5,20.5s20.5-9.18,20.5-20.5-9.18-20.5-20.5-20.5-20.5,9.18-20.5,20.5Z"/>
          <path class="cls-10" d="m98.82,29.94c0,10.38,8.41,18.79,18.78,18.79s18.78-8.41,18.78-18.79-8.41-18.78-18.78-18.78-18.78,8.41-18.78,18.78Z"/>
          <path class="cls-6" d="m136.39,29.95c0-10.37-8.41-18.78-18.78-18.78s-18.78,8.41-18.78,18.78,8.41,18.78,18.78,18.78,18.78-8.41,18.78-18.78Z"/>
          <path class="cls-14" d="m103.11,26.22c0,8,6.49,14.5,14.49,14.5s14.5-6.49,14.5-14.5-6.49-14.5-14.5-14.5-14.49,6.49-14.49,14.5Z"/>
        </g>
        <g>
          <path class="cls-15" d="m16.51,46.68c.02,6.92,5.65,12.51,12.57,12.49,6.92-.03,12.51-5.66,12.49-12.57-.03-6.92-5.66-12.51-12.58-12.48-6.91.02-12.5,5.65-12.48,12.57Z"/>
          <path class="cls-9" d="m18.22,46.67c.02,5.97,4.88,10.8,10.85,10.78,5.97-.02,10.8-4.88,10.78-10.85-.02-5.97-4.88-10.8-10.85-10.77-5.97.02-10.8,4.88-10.78,10.85Z"/>
          <path class="cls-4" d="m39.9,46.6c-.02-6.01-4.9-10.85-10.91-10.83-6,.02-10.85,4.9-10.83,10.91.02,6,4.9,10.85,10.91,10.83,6.01-.02,10.85-4.9,10.83-10.91Z"/>
          <path class="cls-2" d="m39.08,50.65c-.49-.98-.8-1.58-.84-1.67-.36-.74-.81-1.32-1.58-1.66-.72-.32-1.56-.34-2.29-.06-.74.29-1.34.86-1.66,1.58-.3.67-.38,1.61-.06,2.29.01.02.84,1.86,2.11,4.68,1.94-1.21,3.46-3.02,4.32-5.17Z"/>
          <path class="cls-11" d="m20.53,44.78c.02,4.69,3.83,8.48,8.52,8.46,4.69-.02,8.48-3.83,8.47-8.52-.02-4.69-3.83-8.48-8.52-8.47-4.69.02-8.48,3.83-8.46,8.52Z"/>
        </g>
        <path class="cls-5" d="m109.81,35.39c-.98-.37-2.07-.34-3.02.09-1.01.45-1.61,1.22-2.07,2.19-.08.17-.8,1.6-1.92,3.85,1.72,2.21,3.93,4.02,6.46,5.28,1.7-3.8,2.82-6.3,2.83-6.32.43-.91.31-2.13-.08-3.02-.43-.95-1.22-1.7-2.19-2.07Z"/>
        <path class="cls-1" d="m64.29,58.95s-.01-.04-.02-.06c0,0,0-.02-.01-.03,0-.01,0-.02-.01-.03,0-.01,0-.02-.01-.03,0,0,0-.02-.01-.02,0,0-.01-.02-.02-.03,0,0,0-.01,0-.02h0s0-.01-.01-.02c0,0-.01-.02-.01-.03,0,0,0,0-.01-.02,0,0-.01-.02-.02-.03,0,0-.01,0-.01-.02,0,0-.01-.02-.02-.02,0,0-.01-.01-.02-.02,0,0,0-.01-.02-.02h0s-.01-.01-.02-.02c0,0-.01-.01-.02-.02,0,0-.01-.01-.02-.02,0,0-.01-.01-.02-.02,0,0-.01-.01-.02-.01,0,0-.01,0-.02-.01,0,0-.01,0-.02-.01,0,0-.02,0-.02-.01h0s-.01,0-.02,0c-.01,0-.02,0-.02-.01,0,0-.02,0-.02-.01,0,0-.02,0-.02,0,0,0-.01,0-.02,0,0,0-.01,0-.02,0,0,0-.02,0-.02,0,0,0-.01,0-.02,0,0,0,0,0,0,0h0c-.37-.09-.74-.18-1.1-.27-.02,0-.04-.01-.06-.02-.32-.08-.64-.16-.94-.23-.24-.06-.54-.14-.8-.2-.05-.01-.09-.02-.14-.04-.28-.07-.64-.16-.93-.24-.43-.11-.82-.21-1.16-.3-.03-.01-.07-.02-.1-.03,0,0,0,0,0,0-.01,0-.02,0-.03,0-.72-.19-1.6-.43-2.5-.68-.99-.28-1.67-.47-2.08-.59-.02,0-.04-.01-.06-.02-.32-.09-.64-.19-.99-.29-.02,0-.04-.02-.06-.02-.02,0-.04-.01-.06-.02-.24-.07-.5-.15-.78-.24,0,0,0,0,0,0-.03-.01-.07-.02-.1-.03-.03,0-.05-.02-.08-.02h0c-.06-.02-.12-.04-.17-.06-.34-.11-.78-.25-1.11-.36-.04-.01-.07-.03-.11-.04-.24-.08-.52-.17-.76-.25-.06-.02-.12-.04-.18-.06-.31-.1-.71-.24-1.02-.35-.28-.1-.65-.24-.93-.34-.03,0-.05-.02-.08-.03-.3-.11-.58-.22-.8-.31-.31-.12-.68-.28-1.03-.43-.19-.08-.37-.16-.53-.23-.06-.03-.12-.05-.18-.08h0s-.05-.02-.08-.04c-.02-.01-.04-.02-.06-.03-.01,0-.02,0-.03-.01-.12-.06-.25-.12-.35-.17-.07-.04-.13-.07-.19-.1-.17-.09-.36-.19-.52-.27,0,0,0,0,0,0-.21-.11-.47-.26-.68-.37,0,0-.02-.01-.03-.01-.06-.03-.11-.06-.16-.09,0,0-.01,0-.02-.01-.06-.03-.11-.06-.16-.09,0,0-.01-.01-.02-.01-.05-.03-.1-.06-.14-.08-.02-.01-.04-.02-.05-.03-.04-.02-.07-.04-.1-.06-.04-.02-.07-.04-.11-.06-.01,0-.03-.02-.04-.02-.09-.06-.18-.11-.27-.16-.01,0-.03-.02-.04-.02,0,0-.01,0-.02,0-.04-.03-.09-.05-.13-.08-.04-.02-.09-.05-.15-.09h0c-.22-.14-.56-.35-.85-.54-.05-.03-.1-.07-.14-.1-.1-.06-.19-.13-.29-.19h0s-.04-.03-.06-.04c0,0-.02,0-.02-.01-.02,0-.03-.02-.05-.03-.01,0-.03-.02-.04-.02-.02-.01-.03-.02-.04-.03-.02-.01-.03-.02-.05-.03-.01-.01-.03-.02-.04-.03-.02,0-.03-.02-.05-.03-.01,0-.03-.02-.04-.03-.02-.01-.04-.02-.05-.03-.02-.01-.03-.02-.05-.03-.01,0-.03-.02-.04-.03-.02-.01-.04-.02-.06-.04-.01,0-.03-.02-.04-.03-.02-.01-.03-.02-.05-.04-.02-.01-.03-.02-.05-.03-.01,0-.03-.02-.04-.03-.02-.02-.04-.03-.07-.05-.01,0-.02-.02-.03-.02-.1-.07-.21-.15-.32-.23-.03-.02-.06-.04-.09-.06-.13-.09-.32-.23-.53-.39-.2-.15-.4-.3-.6-.45h0c-.18-.14-.35-.27-.51-.4-.1-.08-.19-.15-.26-.21-.11-.09-.22-.18-.32-.26,0,0-.01-.01-.02-.01-.02-.01-.03-.03-.05-.04-.02-.01-.04-.03-.05-.04-.02-.01-.03-.02-.05-.03-.02-.01-.04-.02-.06-.04-.02-.01-.03-.02-.05-.03-.02-.01-.04-.02-.06-.03-.02-.01-.03-.02-.05-.03-.02-.01-.04-.02-.06-.03-.02,0-.04-.02-.05-.02-.02,0-.04-.02-.06-.03-.02,0-.03-.01-.05-.02-.02,0-.04-.02-.06-.02-.01,0-.02-.01-.03-.01,0,0-.01,0-.02,0-.02,0-.04-.01-.07-.02-.02,0-.03-.01-.05-.02,0,0-.01,0-.02,0-.02,0-.04-.01-.05-.01-.02,0-.04-.01-.05-.01-.02,0-.04-.01-.07-.01-.02,0-.04,0-.05-.01-.03,0-.05,0-.07-.01-.02,0-.04,0-.05,0-.03,0-.05,0-.08,0-.02,0-.03,0-.05,0-.04,0-.08,0-.12,0h-.02s-.07,0-.11,0c-.02,0-.03,0-.04,0-.03,0-.05,0-.08,0t0,0s-.03,0-.04,0c-.02,0-.04,0-.07,0h-.01s-.04,0-.05.01c-.02,0-.05,0-.07.01-.02,0-.04,0-.05.01-.02,0-.05,0-.07.02-.02,0-.04.01-.05.02-.02,0-.05.01-.07.02-.02,0-.04.01-.05.02-.03,0-.05.02-.07.02-.02,0-.04.01-.06.02-.02,0-.05.02-.07.03-.02,0-.04.02-.05.02-.03,0-.05.02-.07.03-.02,0-.04.02-.06.03-.02.01-.04.02-.06.03-.01,0-.02.01-.03.01-.01,0-.02,0-.03.02-.01,0-.02,0-.03.01-.01,0-.02.02-.04.02-.02,0-.04.02-.06.03s-.04.03-.06.04c-.02.01-.04.02-.06.04-.02.01-.04.03-.06.04-.02.01-.04.02-.05.03-.02.02-.04.03-.06.05-.02.01-.03.03-.05.04-.02.02-.04.04-.06.06-.02.01-.03.03-.05.04-.02.02-.04.04-.07.06-.01.01-.03.03-.04.04-.02.02-.05.05-.07.07-.01.01-.02.02-.03.03-.03.04-.07.07-.1.11-.27.32-.46.67-.58,1.04-.12.37-.17.75-.15,1.12.02.37.11.72.26,1.03.15.31.37.59.65.81.04.03.07.05.1.07.01,0,.02.02.03.02.02.01.04.03.06.04,0,0,0,0,.01,0,.02.01.03.02.04.03.02.01.05.03.07.04.02,0,.03.02.05.03.01,0,.03.01.04.02,0,0,.02,0,.02.01.02,0,.03.02.05.02.03.01.05.02.07.03.02,0,.03.01.05.02.01,0,.02,0,.03.01.01,0,.03,0,.04.01.01,0,.03.01.04.02.03,0,.05.02.07.02.02,0,.03.01.05.01,0,0,.01,0,.02,0,.03.01.07.02.1.03.03,0,.05.01.08.02.03.01.06.02.09.03.02,0,.04,0,.05.02.58.17,1.3.39,1.97.62,0,0,.02,0,.02,0,.22.08.38.13.54.19.21.07.4.14.57.21.1.04.22.08.36.13.25.09.47.17.67.26,0,0,0,0,0,0,.22.08.41.16.56.22.29.12.57.24.7.29.19.08.39.17.61.26.01,0,.02.01.03.01.03.01.06.03.1.04.04.02.07.03.1.05.04.02.08.04.12.06,0,0,.02,0,.02.01.12.05.24.11.37.17.02,0,.03.01.05.02.23.11.43.21.6.29.02.01.04.02.06.03.2.1.47.24.67.35.02,0,.03.02.05.02.2.11.41.22.66.37.42.25.98.59,1.4.86.02,0,.03.02.05.03.28.18.55.36.78.52h0c.21.14.48.33.7.49.05.03.09.06.13.09.12.08.25.17.37.27.14.1.31.22.49.36.27.2.63.46.9.66.26.2.61.46.88.67.31.24.62.48.99.77.01,0,.03.02.06.05.33.26.62.49.89.7.21.16.44.36.71.57.22.18.46.37.68.55.2.16.4.32.58.47.29.23.66.54.94.78.04.03.07.06.1.09.53.44,1.19,1,1.69,1.42.19.16.5.43.87.74.21.18.47.4.67.57h0s.18.15.46.4c.06.05.11.09.16.14.14.13.33.29.48.42.17.15.35.31.54.48,0,0,0,0,0,0,0,0,.01,0,.02.01,0,0,.01.01.02.02,0,0,0,0,.02.01,0,0,.02,0,.02.01,0,0,.01,0,.02.01.01,0,.02,0,.02.01,0,0,.01,0,.02,0,0,0,.02,0,.02,0,0,0,.01,0,.02,0,0,0,.02,0,.02.01,0,0,.02,0,.02,0,0,0,.02,0,.02,0,0,0,.01,0,.02,0,0,0,.02,0,.02,0,.01,0,.01,0,.02,0,0,0,.02,0,.03,0,0,0,.01,0,.02,0,0,0,.02,0,.03,0h.02s.02,0,.03,0h.02s.02,0,.03,0c0,0,.02,0,.02,0,.01,0,.02,0,.03,0,.01,0,.02,0,.03,0,.01,0,.02,0,.03,0,.01,0,.02,0,.03,0,.01,0,.02,0,.03,0,0,0,.01,0,.02,0h0s.04-.01.06-.02c0,0,.02,0,.02,0,.02,0,.03-.01.05-.02.02,0,.04-.02.06-.02.02,0,.03-.01.05-.02.02,0,.04-.02.06-.03.02-.01.03-.02.05-.03.02,0,.04-.02.06-.03.02-.01.04-.02.06-.03.02-.01.04-.02.06-.04.02-.01.04-.02.06-.04.02-.01.04-.03.06-.04.02-.01.04-.03.06-.04.02-.02.04-.03.06-.05.02-.02.04-.03.06-.04.03-.02.05-.04.07-.05.01-.01.02-.02.04-.03,0,0,.02-.01.02-.02.01,0,.02-.01.03-.02.01-.01.03-.03.04-.04.02-.02.04-.03.06-.05.02-.02.05-.04.07-.06.02-.02.04-.04.06-.05.02-.02.05-.05.07-.07.02-.02.04-.04.06-.06.02-.02.05-.05.07-.07.02-.02.04-.04.06-.06.02-.03.05-.05.07-.08.02-.02.04-.04.06-.06.03-.03.05-.05.07-.08.02-.02.04-.04.06-.07.02-.03.05-.06.07-.08.02-.02.04-.05.06-.07.03-.03.05-.06.07-.09.02-.02.03-.04.05-.06,0,0,0-.01.01-.02,0,0,.01-.01.02-.02.02-.02.04-.05.06-.07.02-.03.04-.05.06-.07.02-.03.05-.06.07-.09.02-.03.04-.05.06-.08.03-.03.05-.07.07-.1.02-.03.04-.05.06-.08.02-.03.05-.07.07-.1.02-.03.04-.05.06-.08.03-.04.05-.07.07-.11.02-.03.04-.05.05-.08.03-.04.06-.08.08-.12.02-.03.03-.05.05-.08.03-.05.06-.09.08-.14.02-.02.03-.04.04-.07.04-.07.08-.14.13-.21.34-.57.64-1.16.89-1.74.26-.58.47-1.15.63-1.69.16-.54.27-1.06.32-1.51.05-.46.04-.86-.06-1.17Z"/>
        <path class="cls-1" d="m112.52,38.92s0-.09.01-.14v-.18s0-.02,0-.04c0-.05,0-.09,0-.14v-.02c0-.05-.01-.11-.02-.16,0-.01,0-.03,0-.04,0-.05-.02-.1-.02-.15,0,0,0-.01,0-.02-.01-.05-.02-.11-.04-.16,0-.01,0-.03,0-.04-.01-.06-.03-.11-.04-.17-.14-.51-.38-.99-.69-1.42-.3-.43-.68-.8-1.09-1.09-.41-.29-.86-.51-1.31-.62-.45-.12-.91-.14-1.34-.05-.05.01-.11.02-.16.04-.02,0-.04.01-.05.02-.03.01-.06.02-.1.03h0s-.04.01-.05.02c-.03.01-.06.02-.09.03-.02,0-.04.02-.06.02-.02.01-.05.02-.08.03,0,0,0,0,0,0-.02.01-.04.02-.06.03-.03.01-.05.03-.08.04-.02.01-.04.02-.06.03-.02.01-.05.03-.07.04,0,0,0,0,0,0-.02.01-.04.02-.05.03-.03.02-.05.03-.07.05-.02.02-.04.03-.05.04-.02.01-.03.03-.05.04,0,0,0,0-.01.01,0,0,0,0,0,0-.01,0-.02.01-.02.01-.02.01-.03.02-.05.04-.01.01-.02.02-.03.03-.01,0-.02.01-.03.02,0,0-.01,0-.02.01-.02.02-.05.05-.07.07,0,0,0,0,0,0,0,0-.01.01-.02.02-.02.02-.03.03-.05.05-.09.11-.2.23-.33.38-.31.35-.63.71-.92,1.03-.37.42-.77.84-.96,1.04-.02.02-.03.03-.05.05-.02.02-.04.04-.06.06,0,0,0,0,0,0-.25.26-.43.45-.63.66,0,0,0,0-.01,0,0,.01-.02.02-.03.03-.02.02-.03.03-.04.04,0,0,0,0,0,0-.08.08-.17.17-.27.27,0,0-.01.01-.02.02,0,0-.01.01-.02.02-.01.01-.02.03-.04.04h0c-.11.11-.23.24-.37.38-.42.42-.8.79-1.21,1.19-.03.03-.07.06-.1.1-.27.26-.62.59-.98.92-.02.02-.04.03-.06.05-.01.01-.02.02-.04.03-.27.25-.54.49-.77.7-.04.03-.07.06-.11.1-.06.05-.12.1-.18.16-.06.05-.13.11-.19.16-.02.01-.04.03-.05.04-.01,0-.02.02-.03.03-.11.1-.23.19-.35.3-.22.18-.5.41-.71.59,0,0-.02.02-.03.02.07-.05.13-.11.19-.16h0c-.07.05-.13.11-.2.16,0,0,0,0,0,0-.08.06-.16.13-.24.19,0,0-.02.01-.02.02-.16.13-.33.26-.48.37.07-.05.15-.11.22-.17h0c-.06.05-.12.09-.17.14-.02.01-.03.02-.04.03,0,0-.01,0-.02.01-.07.05-.13.1-.2.16,0,0,0,0-.01,0,.08-.06.16-.12.23-.17-.5.37-1.17.87-1.69,1.23-.09.06-.18.13-.28.19-.03.02-.06.04-.09.06,0,0,0,0,0,0-.61.42-1.15.78-1.56,1.04-.02.01-.04.03-.06.04-.28.18-1.05.68-2.23,1.41-.2.12-.44.27-.67.41h0c-.07.04-.14.09-.22.13,0,0,0,0-.01,0-.05.03-.09.05-.13.08,0,0-.01,0-.02.01h0s-.09.06-.14.08c-.37.22-.85.51-1.22.73,0,0,0,0-.01,0-.39.23-.79.47-1.19.7-.31.18-.65.37-1,.58-.1.06-.2.11-.29.17-.01,0-.03.02-.04.02-.41.23-.82.46-1.22.69-.36.2-.84.47-1.21.68,0,0-.02,0-.02.01-.05.03-.11.06-.16.09-.16.09-.33.18-.5.28-.18.1-.35.2-.53.3-.25.13-.55.3-.83.45-.07.04-.13.07-.19.11-.05.02-.09.05-.14.07-.3.17-.69.37-.98.53h0s0,0,0,0c-.28.15-.65.35-.93.5-.12.06-.26.14-.4.22-.13.07-.26.14-.38.2,0,0,0,0-.02.01-.19.1-.44.24-.63.34-.21.11-.48.25-.69.36h0s0,.02,0,.03c0,0,0,0,0,0,0,0,0,.01.01.02,0,0,0,0,.01.01,0,0,0,.01,0,.01,0,0,.01.01.02.02,0,0,0,0,.01.02,0,0,.01.02.02.02,0,0,0,0,.01.01,0,0,0,0,0,0,0,0,.01.02.02.03,0,0,0,.01.01.02,0,0,.02.02.02.03,0,0,.01.02.02.02.01,0,.02.02.03.03,0,0,.01.02.02.02,0,0,0,0,.01.01,0,0,0,.02.02.02,0,0,.01.02.02.03.01.01.02.02.03.03,0,.01.02.02.03.03.01.01.02.02.03.03,0,.01.02.02.03.04.01.01.02.02.03.04.01.01.02.03.03.04.01.01.02.03.03.04,0,0,.01.01.02.02,0,.01.01.02.02.03.01.01.02.03.03.04.02.02.03.04.05.07,0,0,0,0,.01.01.14.18.31.38.51.61.96,1.15,1.92,2.29,2.88,3.44.05.06.11.14.16.19.05.06.12.13.17.19.06.06.11.12.16.18.17.18.34.37.52.55,0,0,.01,0,.01.01.05.05.09.1.14.15,0,0,0,0,.01.01,0,0,.01.01.02.02.21.22.41.44.62.66,0,0,.01.01.02.02.51.55,1.02,1.1,1.52,1.65.02.01.03.02.04.04.02.01.03.03.04.04.02.01.03.03.04.04.02.02.03.03.05.05.02.02.03.03.04.05.01,0,.02.02.03.02.02.02.03.03.05.05.02.02.04.04.05.05,0,0,0,0,0,0,.04.04.07.07.1.11.04.04.07.07.1.11,0,0,.02.02.03.03.03.03.06.06.09.09h0s.05.06.08.08c0,0,.01.01.02.02,0,0,0,0,.01,0,.03.03.05.05.08.08,0,0,0,0,0,.01.03.03.05.05.07.07,0,0,0,0,.01,0,.01.01.03.02.04.03,0,0,.01.01.02.02,0,0,0,0,.02.02.02.02.04.03.05.05h0s.03.03.05.04h0s.01.01.01.02c0,0,0,0,0,0h0s.02.02.03.02c0,0,0,0,0,0,0,0,.01,0,.02.01,0,0,0,0,.01,0,0,0,.01,0,.02.01h0s.01,0,.02,0h0s0,0,0,0h0s0,0,0,0h0c.13-.16.28-.37.42-.54.06-.08.13-.16.22-.28.17-.22.38-.49.62-.79.05-.05.08-.1.12-.15.11-.13.21-.27.33-.42.12-.14.23-.3.36-.45,0,0,.01-.01.01-.02.15-.19.34-.43.52-.65.04-.05.08-.11.13-.16.02-.02.03-.04.05-.06.03-.03.05-.06.08-.09.22-.28.5-.63.72-.91.02-.02.04-.05.06-.07.24-.3.55-.68.78-.97.01,0,.02-.02.03-.03.53-.65,1.24-1.51,1.77-2.15h0s.01-.02.02-.02c.13-.16.27-.32.4-.48.17-.2.34-.4.49-.58,0,0,0,0,.01-.02.11-.13.21-.25.3-.36.14-.17.28-.33.43-.5.07-.08.13-.15.19-.22.27-.32.64-.74.92-1.06,0,0,0-.01.01-.02.03-.03.05-.06.08-.09.17-.19.34-.39.51-.58.07-.08.15-.17.23-.26.29-.32.59-.66.86-.96.04-.04.07-.08.11-.12.26-.29.61-.66.87-.94.12-.13.27-.29.41-.44h0s.03-.03.05-.05c.13-.14.26-.28.37-.4.03-.03.06-.07.09-.1.19-.2.41-.42.6-.62,0,0,.01-.01.02-.02.02-.02.03-.03.04-.04.02-.02.04-.04.05-.05.12-.12.27-.27.41-.41.13-.12.26-.25.36-.36,0,0,.01-.01.02-.02.1-.09.19-.18.28-.27.15-.14.3-.28.43-.4.26-.24.48-.43.69-.62.07-.06.13-.12.2-.18.02-.01.03-.03.05-.04.04-.03.08-.07.12-.1.25-.21.48-.4.69-.58.1-.08.21-.17.32-.26.06-.05.11-.09.16-.13.04-.03.08-.06.12-.09.04-.03.07-.05.11-.08,0,0,0-.01.01-.01.13-.1.26-.21.4-.32,0,0,.01,0,.02-.01l.09-.07s.04-.04.07-.05c.01,0,.02-.02.03-.02.44-.34.9-.69,1.25-.95.04-.03.08-.06.12-.08.19-.14.38-.28.58-.42.18-.13.36-.26.55-.39.08-.06.16-.12.25-.17.13-.09.24-.17.35-.24.32-.22.54-.37.77-.53.21-.14.41-.27.69-.46.22-.15.72-.47,1.19-.77.09-.05.17-.11.26-.16.05-.03.09-.06.13-.09.01,0,.02-.01.04-.02.05-.03.1-.06.14-.09.02,0,.03-.02.04-.03.03-.02.07-.04.1-.06.02-.01.04-.02.06-.04.04-.03.08-.05.13-.08.02-.01.03-.02.05-.03.01,0,.02-.01.04-.02.06-.04.13-.08.19-.12h0c.07-.04.12-.07.15-.09.08-.05.16-.09.24-.14,0,0,0,0,.01,0h0s.03-.02.05-.03c0,0,.02-.01.02-.01,0,0,.01,0,.01,0,.03-.02.05-.04.08-.06,0,0,0,0,.01,0,0,0,.02-.01.02-.02.02-.01.03-.02.05-.03.01-.01.03-.02.04-.03,0,0,.02-.01.02-.02,0,0,.01,0,.02,0,.03-.02.05-.05.08-.07,0,0,.01-.01.02-.02.03-.03.05-.05.08-.08,0,0,.01-.01.02-.02.03-.03.06-.06.08-.09,0,0,.01-.02.02-.02.02-.03.05-.06.07-.09,0,0,.01-.01.01-.02.03-.03.05-.07.08-.11,0,0,0,0,0,0,0,0,0,0,0-.01,0-.01.02-.03.02-.04.02-.02.03-.05.04-.07,0,0,0,0,0-.01.02-.04.04-.08.06-.12,0-.01.01-.02.02-.03.02-.04.04-.08.05-.12,0,0,0,0,0,0,.02-.04.03-.08.05-.12,0,0,0-.02.01-.03.02-.04.03-.09.04-.13,0,0,0-.01,0-.02,0-.03.02-.05.02-.08,0-.02.01-.03.01-.05,0-.01,0-.02,0-.03.01-.05.02-.09.03-.14v-.02s.02-.08.02-.13c0,0,0-.01,0-.02h0c0-.06.01-.11.02-.16v-.02Zm-14.21,4.55s.07-.06.1-.08c0,0,0,0,0,0-.03.02-.06.05-.09.07h0Zm-.7.56c.06-.04.11-.09.17-.13,0,0,0,0,0,0-.06.04-.11.08-.15.12,0,0,0,0,0,0Zm-.59.45c-.06.04-.11.09-.17.13,0,0,0,0-.01,0,.06-.05.13-.1.19-.14,0,0-.01,0-.02.01Zm-.42.31s0,0-.01,0c.06-.04.11-.08.16-.12,0,0-.01,0-.01,0-.05.03-.09.07-.14.1Zm-.15.11s0,0-.01,0c-.03.02-.06.04-.08.06,0,0,0,0,0,0,.03-.03.07-.05.1-.08Z"/>
        <g>
          <path class="cls-15" d="m56.32,68.55c0,9.43,7.65,17.08,17.08,17.08s17.08-7.65,17.08-17.08-7.65-17.08-17.08-17.08-17.08,7.65-17.08,17.08Z"/>
          <path class="cls-7" d="m58.04,68.55c0,8.48,6.88,15.36,15.37,15.36s15.37-6.88,15.37-15.36-6.88-15.37-15.37-15.37-15.37,6.88-15.37,15.37Z"/>
          <path class="cls-3" d="m88.77,68.55c0-8.49-6.88-15.37-15.37-15.37s-15.37,6.88-15.37,15.37,6.88,15.37,15.37,15.37,15.37-6.88,15.37-15.37Z"/>
          <path class="cls-12" d="m62.2,64.97c0,6.19,5.02,11.2,11.2,11.2s11.21-5.02,11.21-11.2-5.01-11.21-11.21-11.21-11.2,5.02-11.2,11.21Z"/>
        </g>
      </g>
    </g>
  </g>
</svg>