<svg id="RUFUSZ_LOGO" data-name="RUFUSZ LOGO" xmlns="http://www.w3.org/2000/svg" viewBox="0 0 109.51 24"><defs><style>.cls-1{fill:#262626;opacity:0.6;isolation:isolate;}.cls-2{fill:#e51034;}</style></defs><title>Rufusz_logo</title><path class="cls-1" d="M35.43.42A5.88,5.88,0,0,0,33.2,0a4.21,4.21,0,0,0-2.92,1,3.57,3.57,0,0,0-1.15,2.81,3.61,3.61,0,0,0,1.18,2.91,4.51,4.51,0,0,0,3,1,9.17,9.17,0,0,0,2.11-.28l-.12-1.64a3.9,3.9,0,0,1-1.79.42,2.23,2.23,0,0,1-2.42-2.36,2.2,2.2,0,0,1,2-2.35h.36a3.51,3.51,0,0,1,1.75.49L35.43.42Zm7.36,1a1.4,1.4,0,0,1,1.31.8,3.71,3.71,0,0,1,0,3.18,1.47,1.47,0,0,1-2.62,0,3.66,3.66,0,0,1,0-3.18,1.4,1.4,0,0,1,1.31-.8Zm0-1.42a3.49,3.49,0,0,0-2.72,1.05,4,4,0,0,0-.92,2.78,3.94,3.94,0,0,0,.93,2.77,4,4,0,0,0,5.42,0,4,4,0,0,0,.92-2.77,4,4,0,0,0-.92-2.78A3.46,3.46,0,0,0,42.79,0h0Zm8,.18V7.51h1.71V2.63c0-.35,0-.86-.08-1.56a11.69,11.69,0,0,0,.31,1.29l1.61,5.15h1.75l1.64-5.24a11.33,11.33,0,0,0,.32-1.2C58,1.62,58,2.12,58,2.6V7.51h1.83V.19H56.9L55.56,4.55a4.54,4.54,0,0,0-.22,1.34,10.12,10.12,0,0,0-.2-1.3L53.8.19ZM66.38,1.51h.53a1,1,0,0,1,1.17,1.11,1,1,0,0,1-1.18,1h-.52V1.51h0ZM64.43.19V7.51h1.95V5a6.5,6.5,0,0,0,2.51-.35A2.08,2.08,0,0,0,70,2.52C70,1,69,.19,67,.19H64.43Zm9.79,0V4.45c0,2.14,1,3.22,3.12,3.22s3.12-1.08,3.12-3.22V.2H78.61V4.45q0,1.77-1.26,1.77T76.17,4.45V.2h-2Zm10.22,0V1.66h1.81V7.51h1.95V1.66H90V.2H84.44Zm9.6,0V7.51h5.2V6.1H96V4.43h3V3H96V1.57h3.13V.2H94ZM105.3,1.48h.49c1,0,1.46.32,1.46,1s-.42.92-1.26.92h-.69V1.48h0ZM103.39.19V7.51h1.91V4.65a2.88,2.88,0,0,1,1,.12,1.1,1.1,0,0,1,.56.74l.64,2h2l-.87-2.42a1.82,1.82,0,0,0-.93-1.2,1.68,1.68,0,0,0,1.44-1.78c0-1.27-.95-1.91-2.86-1.91h-2.91ZM29.26,10.79v7.52c0,3.78,1.84,5.68,5.51,5.68s5.51-1.9,5.51-5.68V10.79H37v7.52q0,3.13-2.24,3.13-2.07,0-2.07-3.13V10.79H29.26Zm19.08,0V23.72h3.46V18.46h4.82V16H51.81V13.25h5V10.79H48.35Zm15.58,0v7.52c0,3.78,1.84,5.68,5.51,5.68S75,22.1,75,18.32V10.79H71.68v7.52q0,3.13-2.23,3.13-2.07,0-2.07-3.13V10.79H63.93Zm27.67.15a11.81,11.81,0,0,0-3.54-.47,7,7,0,0,0-3.69.84,3.49,3.49,0,0,0-1.69,3.2,3.28,3.28,0,0,0,1.57,2.89,16.73,16.73,0,0,0,2.89,1.27q1.56.59,1.56,1.34a1.21,1.21,0,0,1-.76,1.14,3.34,3.34,0,0,1-1.43.28,8,8,0,0,1-3.39-.84l-.3,2.89A14.48,14.48,0,0,0,86.7,24a7,7,0,0,0,3.86-.93,3.83,3.83,0,0,0,1.68-3.43,3.28,3.28,0,0,0-1.56-2.94,16.2,16.2,0,0,0-2.9-1.17Q86.2,15,86.2,14.18c0-.84.74-1.25,2.22-1.25a7.87,7.87,0,0,1,2.92.67l.26-2.66h0Zm8-.15v2.5h6.22l-6.41,7.54v2.89h10v-2.5h-6.5l6.5-7.69V10.79H99.61Z"/><path class="cls-2" d="M15.73,0a15.6,15.6,0,0,1,6.84,1.57V5.2A12.54,12.54,0,0,0,6.05,23.71H2.19A15.71,15.71,0,0,1,15.73,0ZM9.28,23.71v-16h6.87a11.76,11.76,0,0,1,3.76.44A3.71,3.71,0,0,1,21.8,9.71a4.66,4.66,0,0,1,.7,2.55,4.33,4.33,0,0,1-1.07,3,5.14,5.14,0,0,1-3.2,1.49A7.65,7.65,0,0,1,20,18.11a18.41,18.41,0,0,1,1.86,2.62l1.87,3H19.8l-2.24-3.34A23,23,0,0,0,15.84,18a2.54,2.54,0,0,0-1-.67,5.41,5.41,0,0,0-1.65-.18h-.66v6.57H9.28Zm3.27-9.15H15a12.55,12.55,0,0,0,2.94-.2,1.77,1.77,0,0,0,.92-.68,2.12,2.12,0,0,0,.33-1.21,1.94,1.94,0,0,0-.44-1.32,2,2,0,0,0-1.23-.64q-.39-.05-2.38-.05H12.55v4.1h0Z"/></svg>