<?xml version="1.0" encoding="utf-8"?>
<!-- Generator: Adobe Illustrator 23.0.1, SVG Export Plug-In . SVG Version: 6.00 Build 0)  -->
<svg version="1.1" id="Layer_1" xmlns="http://www.w3.org/2000/svg" xmlns:xlink="http://www.w3.org/1999/xlink" x="0px" y="0px"
	 viewBox="0 0 126.24 29.85" style="enable-background:new 0 0 126.24 29.85;" xml:space="preserve">
<style type="text/css">
	.st0{fill:#13110C;}
	.st1{fill:#048AC7;}
	.st2{fill:#FFFFFF;}
</style>
<g>
	<path class="st0" d="M37.26,16.81v1.73H29.4c-0.48,0-0.89-0.18-1.22-0.53c-0.33-0.36-0.49-0.79-0.49-1.3v-3.3
		c0-0.51,0.16-0.94,0.49-1.3c0.33-0.35,0.73-0.53,1.22-0.53h7.83v1.73h-7.09v3.5 M31.61,15.78v-1.51h5.17v1.51H31.61z"/>
	<path class="st0" d="M47.28,13.31h-7.12v-1.73h7.87c0.46,0,0.86,0.18,1.19,0.53c0.34,0.35,0.51,0.78,0.51,1.3v3.3
		c0,0.52-0.17,0.95-0.51,1.3c-0.33,0.36-0.73,0.53-1.19,0.53h-7.86v-4.12h2.44v2.39h4.66"/>
	<path class="st0" d="M55.11,11.58v5.23h4.63v-5.23h2.46v6.96h-7.86c-0.47,0-0.88-0.18-1.21-0.53c-0.34-0.36-0.51-0.8-0.51-1.3
		v-5.13"/>
	<path class="st0" d="M74.62,16.81v1.73H66.8c-0.49,0-0.89-0.18-1.22-0.53s-0.49-0.79-0.49-1.3v-3.3c0-0.51,0.16-0.94,0.49-1.3
		c0.33-0.35,0.73-0.53,1.22-0.53h7.84v1.73h-7.1v3.5"/>
	<path class="st0" d="M80,16.32v2.22h-2.46v-5.13c0-0.51,0.17-0.94,0.49-1.3c0.33-0.35,0.74-0.53,1.22-0.53h6.1
		c0.46,0,0.86,0.18,1.19,0.53c0.33,0.34,0.49,0.75,0.49,1.22v5.21H84.6v-2.22 M81.46,14.84h3.14v-1.53H80v1.53H81.46z"/>
	<polyline class="st0" points="99.56,11.58 99.56,13.31 96.17,13.31 96.17,18.54 93.44,18.54 93.44,13.31 90.07,13.31 90.07,11.58 	
		"/>
	<rect x="102.49" y="11.58" class="st0" width="2.54" height="6.96"/>
	<path class="st0" d="M115.73,11.58c0.48,0,0.89,0.18,1.22,0.53c0.34,0.35,0.51,0.78,0.51,1.3v3.3c0,0.52-0.17,0.95-0.51,1.3
		c-0.33,0.35-0.74,0.53-1.22,0.53h-6.12c-0.48,0-0.89-0.18-1.22-0.53c-0.33-0.36-0.49-0.79-0.49-1.3v-3.3c0-0.51,0.16-0.94,0.49-1.3
		c0.33-0.35,0.74-0.53,1.22-0.53 M114.99,16.81v-3.5h-4.63v3.5H114.99z"/>
	<rect x="28.15" y="20.56" class="st1" width="0.74" height="2.26"/>
	<polyline class="st1" points="31.94,22.82 30.48,21.12 30.48,22.82 29.79,22.82 29.79,20.56 30.96,20.56 32.42,22.25 32.42,20.56 
		33.12,20.56 33.12,22.82 	"/>
	<polyline class="st1" points="36.59,20.56 36.59,21.08 34.76,21.08 34.76,21.46 36.59,21.46 36.59,21.91 34.76,21.91 34.76,22.82 
		34.02,22.82 34.02,20.56 	"/>
	<path class="st1" d="M38.87,20.54l0.59,0c0.43,0,0.73,0.07,0.89,0.2c0.16,0.13,0.24,0.4,0.24,0.8v0.11c0,0.47-0.06,0.78-0.19,0.94
		s-0.44,0.24-0.96,0.24l-0.56,0.01l-0.23,0l-0.5-0.02c-0.28,0-0.5-0.06-0.65-0.18c-0.15-0.12-0.23-0.31-0.23-0.57l-0.01-0.42
		c0-0.46,0.06-0.76,0.19-0.9c0.13-0.14,0.43-0.21,0.9-0.21 M38.47,22.28l0.4,0.01l0.38,0c0.21,0,0.36-0.02,0.45-0.06
		c0.09-0.04,0.13-0.14,0.13-0.31l0.01-0.31c0-0.1-0.01-0.19-0.02-0.27l-0.08-0.16l-0.18-0.07c-0.08-0.01-0.17-0.02-0.26-0.02
		l-0.73,0c-0.17,0-0.29,0.02-0.38,0.05c-0.09,0.03-0.14,0.1-0.15,0.2c-0.01,0.1-0.02,0.19-0.02,0.26v0.15
		c0,0.21,0.03,0.35,0.08,0.42C38.14,22.24,38.27,22.28,38.47,22.28"/>
	<path class="st1" d="M43.69,20.56c0.29,0,0.5,0.05,0.62,0.15c0.12,0.11,0.18,0.29,0.18,0.56c0,0.1-0.01,0.19-0.02,0.26l-0.07,0.19
		l-0.13,0.12c-0.05,0.03-0.15,0.06-0.3,0.11c0.17,0.02,0.3,0.06,0.38,0.12c0.08,0.06,0.12,0.17,0.12,0.31v0.43h-0.75V22.6
		c0-0.11-0.01-0.2-0.03-0.27c-0.02-0.06-0.12-0.1-0.29-0.1h-1.23v0.58h-0.74v-2.26 M43.38,21.69c0.17,0,0.27-0.02,0.31-0.06
		c0.04-0.04,0.06-0.12,0.06-0.26l-0.02-0.17l-0.1-0.07l-0.12-0.02l-0.11,0h-1.23v0.58h1.12H43.38z"/>
	<polyline class="st1" points="48.79,22.82 48.79,21.1 47.72,22.82 47.13,22.82 46.07,21.1 46.07,22.82 45.38,22.82 45.38,20.56 
		46.55,20.56 47.44,22.06 48.32,20.56 49.48,20.56 49.48,22.82 	"/>
	<path class="st1" d="M51.02,22.82H50.2l1.35-2.26h1l1.32,2.26h-0.81l-0.23-0.41h-1.57 M51.51,21.94h1.04l-0.52-0.89L51.51,21.94z
		 M51.65,20.36l-0.09-0.23l0.81-0.37l0.14,0.37L51.65,20.36z"/>
	<path class="st1" d="M57.63,22.05c0,0.31-0.06,0.52-0.18,0.62c-0.13,0.1-0.37,0.15-0.73,0.15l-0.56,0.01l-0.46-0.01
		c-0.49,0-0.8-0.06-0.94-0.18c-0.14-0.12-0.21-0.3-0.21-0.55l-0.02-0.47c0-0.37,0.06-0.64,0.18-0.81c0.11-0.17,0.35-0.26,0.71-0.26
		l0.69-0.02c0.2,0,0.36,0,0.5,0c0.13,0.01,0.29,0.02,0.48,0.03c0.19,0.02,0.32,0.09,0.4,0.23c0.08,0.13,0.12,0.32,0.12,0.55h-0.71
		c0-0.11-0.03-0.17-0.08-0.21c-0.06-0.03-0.14-0.05-0.26-0.05l-0.21,0h-0.2l-0.38,0c-0.22,0-0.36,0.04-0.41,0.12
		c-0.05,0.08-0.08,0.24-0.08,0.48c0,0.25,0.03,0.41,0.09,0.48c0.06,0.07,0.21,0.11,0.47,0.11l0.29,0.01l0.38,0
		c0.15,0,0.25-0.02,0.32-0.06c0.06-0.04,0.1-0.13,0.1-0.27h0.72"/>
	<rect x="58.47" y="20.56" class="st1" width="0.74" height="2.26"/>
	<path class="st1" d="M61.68,20.54l0.59,0c0.43,0,0.73,0.07,0.89,0.2c0.16,0.13,0.23,0.4,0.23,0.8v0.11c0,0.47-0.06,0.78-0.19,0.94
		c-0.13,0.16-0.44,0.24-0.96,0.24l-0.56,0.01l-0.23,0l-0.5-0.02c-0.28,0-0.5-0.06-0.65-0.18c-0.15-0.12-0.23-0.31-0.23-0.57
		l-0.01-0.42c0-0.46,0.06-0.76,0.19-0.9c0.13-0.14,0.43-0.21,0.9-0.21 M61.28,22.28l0.4,0.01l0.38,0c0.21,0,0.36-0.02,0.45-0.06
		c0.09-0.04,0.13-0.14,0.13-0.31l0.01-0.31c0-0.1-0.01-0.19-0.02-0.27l-0.08-0.16l-0.18-0.07c-0.08-0.01-0.17-0.02-0.26-0.02
		l-0.73,0c-0.17,0-0.29,0.02-0.38,0.05c-0.09,0.03-0.14,0.1-0.15,0.2c-0.01,0.1-0.02,0.19-0.02,0.26v0.15
		c0,0.21,0.03,0.35,0.08,0.42C60.94,22.24,61.07,22.28,61.28,22.28 M61.34,20.36l-0.09-0.23l0.82-0.37l0.14,0.37L61.34,20.36z"/>
	<polyline class="st1" points="65.1,22.82 65.1,21.13 64.02,21.13 64.02,20.56 66.92,20.56 66.92,21.13 65.84,21.13 65.84,22.82 	
		"/>
	<polyline class="st1" points="70.3,20.56 70.3,21.08 68.34,21.08 68.34,21.46 70.17,21.46 70.17,21.91 68.34,21.91 68.34,22.31 
		70.3,22.31 70.3,22.82 67.6,22.82 67.6,20.56 	"/>
	<path class="st1" d="M74.18,22.05c0,0.31-0.06,0.52-0.18,0.62c-0.13,0.1-0.36,0.15-0.73,0.15l-0.56,0.01l-0.46-0.01
		c-0.49,0-0.8-0.06-0.94-0.18c-0.14-0.12-0.21-0.3-0.21-0.55l-0.02-0.47c0-0.37,0.06-0.64,0.17-0.81c0.11-0.17,0.35-0.26,0.71-0.26
		l0.69-0.02c0.2,0,0.37,0,0.5,0c0.13,0.01,0.29,0.02,0.48,0.03c0.19,0.02,0.32,0.09,0.4,0.23c0.08,0.13,0.12,0.32,0.12,0.55h-0.72
		c0-0.11-0.03-0.17-0.08-0.21c-0.06-0.03-0.14-0.05-0.26-0.05l-0.21,0h-0.2l-0.38,0c-0.22,0-0.36,0.04-0.41,0.12
		c-0.05,0.08-0.08,0.24-0.08,0.48c0,0.25,0.03,0.41,0.09,0.48c0.06,0.07,0.21,0.11,0.46,0.11l0.29,0.01l0.38,0
		c0.15,0,0.25-0.02,0.32-0.06c0.06-0.04,0.09-0.13,0.09-0.27h0.72"/>
	<polyline class="st1" points="78.17,20.56 78.17,22.82 77.43,22.82 77.43,21.95 75.76,21.95 75.76,22.82 75.02,22.82 75.02,20.56 
		75.76,20.56 75.76,21.39 77.43,21.39 77.43,20.56 	"/>
	<polyline class="st1" points="81.22,22.82 79.76,21.12 79.76,22.82 79.07,22.82 79.07,20.56 80.24,20.56 81.7,22.25 81.7,20.56 
		82.39,20.56 82.39,22.82 	"/>
	<path class="st1" d="M84.86,20.54l0.59,0c0.43,0,0.73,0.07,0.89,0.2c0.16,0.13,0.24,0.4,0.24,0.8v0.11c0,0.47-0.06,0.78-0.19,0.94
		c-0.13,0.16-0.44,0.24-0.95,0.24l-0.56,0.01l-0.23,0l-0.5-0.02c-0.28,0-0.5-0.06-0.65-0.18c-0.15-0.12-0.23-0.31-0.23-0.57
		l-0.01-0.42c0-0.46,0.06-0.76,0.19-0.9c0.13-0.14,0.43-0.21,0.9-0.21 M84.46,22.28l0.4,0.01l0.38,0c0.21,0,0.36-0.02,0.45-0.06
		c0.09-0.04,0.13-0.14,0.13-0.31l0.01-0.31c0-0.1-0.01-0.19-0.02-0.27l-0.08-0.16l-0.18-0.07c-0.08-0.01-0.17-0.02-0.26-0.02
		l-0.73,0c-0.17,0-0.29,0.02-0.38,0.05c-0.09,0.03-0.14,0.1-0.15,0.2C84,21.45,84,21.53,84,21.6v0.15c0,0.21,0.03,0.35,0.08,0.42
		C84.13,22.24,84.25,22.28,84.46,22.28"/>
	<polyline class="st1" points="89.84,22.25 89.84,22.82 87.42,22.82 87.42,20.56 88.16,20.56 88.16,22.25 	"/>
	<path class="st1" d="M92.08,20.54l0.59,0c0.43,0,0.73,0.07,0.89,0.2c0.16,0.13,0.24,0.4,0.24,0.8v0.11c0,0.47-0.06,0.78-0.19,0.94
		c-0.13,0.16-0.44,0.24-0.96,0.24l-0.55,0.01l-0.23,0l-0.5-0.02c-0.28,0-0.5-0.06-0.65-0.18c-0.15-0.12-0.23-0.31-0.23-0.57
		l-0.01-0.42c0-0.46,0.06-0.76,0.19-0.9c0.13-0.14,0.42-0.21,0.9-0.21 M91.68,22.28l0.4,0.01l0.38,0c0.21,0,0.36-0.02,0.45-0.06
		c0.09-0.04,0.14-0.14,0.14-0.31l0.01-0.31c0-0.1-0.01-0.19-0.02-0.27l-0.08-0.16l-0.18-0.07c-0.08-0.01-0.17-0.02-0.26-0.02
		l-0.73,0c-0.17,0-0.29,0.02-0.38,0.05c-0.09,0.03-0.14,0.1-0.15,0.2c-0.01,0.1-0.02,0.19-0.02,0.26v0.15
		c0,0.21,0.03,0.35,0.08,0.42C91.35,22.24,91.47,22.28,91.68,22.28 M91.75,20.36l-0.09-0.23l0.82-0.37l0.14,0.37L91.75,20.36z"/>
	<path class="st1" d="M97.76,21.55l0,0.47c0,0.28-0.05,0.48-0.15,0.61c-0.1,0.14-0.31,0.2-0.6,0.2l-0.38,0l-0.44,0l-0.38-0.01
		c-0.28,0-0.5-0.02-0.66-0.05c-0.16-0.03-0.29-0.11-0.39-0.23c-0.1-0.12-0.15-0.3-0.15-0.55l-0.01-0.28c0-0.44,0.06-0.74,0.18-0.91
		c0.11-0.17,0.39-0.25,0.82-0.25l0.55-0.01l0.2,0l0.49,0.01c0.32,0,0.55,0.05,0.7,0.15c0.14,0.1,0.21,0.3,0.21,0.59v0.04h-0.72
		L97,21.2l-0.09-0.08l-0.13-0.03l-0.18,0l-0.85,0c-0.17,0-0.28,0.04-0.33,0.12c-0.05,0.08-0.07,0.21-0.07,0.4v0.21
		c0,0.15,0.02,0.27,0.07,0.35l0.2,0.13l0.19,0.02l0.17,0l0.66,0.01c0.12,0,0.22-0.02,0.29-0.06c0.07-0.04,0.1-0.11,0.1-0.22l0-0.06
		H96.1v-0.42"/>
	<rect x="98.61" y="20.56" class="st1" width="0.74" height="2.26"/>
	<path class="st1" d="M100.88,22.82h-0.82l1.35-2.26h0.99l1.32,2.26h-0.82l-0.23-0.41h-1.57 M101.38,21.94h1.04l-0.52-0.89
		L101.38,21.94z"/>
	<polyline class="st1" points="108.45,22.31 108.45,22.82 105.51,22.82 105.51,22.31 107.33,21.08 105.55,21.08 105.55,20.56 
		108.41,20.56 108.41,21.08 106.57,22.31 	"/>
	<path class="st1" d="M111.5,20.56c0.29,0,0.5,0.05,0.62,0.15c0.12,0.11,0.18,0.29,0.18,0.56c0,0.1-0.01,0.19-0.02,0.26l-0.07,0.19
		l-0.13,0.12c-0.05,0.03-0.15,0.06-0.3,0.11c0.17,0.02,0.29,0.06,0.37,0.12c0.08,0.06,0.12,0.17,0.12,0.31v0.43h-0.75V22.6
		c0-0.11-0.01-0.2-0.03-0.27c-0.02-0.06-0.12-0.1-0.29-0.1h-1.23v0.58h-0.74v-2.26 M111.19,21.69c0.17,0,0.27-0.02,0.31-0.06
		c0.04-0.04,0.06-0.12,0.06-0.26l-0.02-0.17l-0.1-0.07l-0.12-0.02l-0.11,0h-1.22v0.58h1.11H111.19z"/>
	<polyline class="st1" points="114.05,22.82 114.05,21.13 112.97,21.13 112.97,20.56 115.87,20.56 115.87,21.13 114.79,21.13 
		114.79,22.82 	"/>
	<rect x="116.48" y="22.19" class="st1" width="0.72" height="0.63"/>
	<path class="st1" d="M14.95,7.83c-3.97,0-7.19,3.22-7.19,7.19c0,3.97,3.22,7.19,7.19,7.19c3.97,0,7.19-3.22,7.19-7.19
		C22.13,11.05,18.92,7.83,14.95,7.83"/>
	<path class="st2" d="M12.6,14.31h6.65v1.44h-6.64v1.05h7.12v1.74h-7.86c-0.48,0-0.89-0.18-1.22-0.53c-0.33-0.36-0.49-0.79-0.49-1.3
		v-3.3c0-0.51,0.17-0.94,0.49-1.3c0.33-0.35,0.74-0.53,1.22-0.53h7.83v1.73h-7.1"/>
	<path class="st1" d="M25.82,15.02c0,0.42-0.34,0.75-0.75,0.75s-0.75-0.34-0.75-0.75c0-0.42,0.34-0.75,0.75-0.75
		S25.82,14.6,25.82,15.02"/>
</g>
</svg>
